<svg xmlns="http://www.w3.org/2000/svg" viewBox="0 0 128 128">
  <defs>
    <linearGradient id="bg" x1="0" y1="0" x2="1" y2="1">
      <stop offset="0%" stop-color="#9B7DEE"/>
      <stop offset="100%" stop-color="#7C5CE0"/>
    </linearGradient>
  </defs>
  <rect width="128" height="128" rx="28" fill="url(#bg)"/>
  <!-- Word blanks with revealed letters -->
  <rect x="14" y="36" width="24" height="28" rx="6" fill="#2ECC71" opacity="0.95"/>
  <text x="26" y="56" text-anchor="middle" font-family="sans-serif" font-weight="bold" font-size="17" fill="white">A</text>
  <rect x="42" y="36" width="24" height="28" rx="6" fill="white" opacity="0.4"/>
  <text x="54" y="56" text-anchor="middle" font-family="sans-serif" font-weight="bold" font-size="17" fill="rgba(255,255,255,0.5)">?</text>
  <rect x="70" y="36" width="24" height="28" rx="6" fill="white" opacity="0.4"/>
  <text x="82" y="56" text-anchor="middle" font-family="sans-serif" font-weight="bold" font-size="17" fill="rgba(255,255,255,0.5)">?</text>
  <rect x="98" y="36" width="24" height="28" rx="6" fill="#2ECC71" opacity="0.95"/>
  <text x="110" y="56" text-anchor="middle" font-family="sans-serif" font-weight="bold" font-size="17" fill="white">A</text>
  <!-- Keyboard hint row -->
  <rect x="18" y="78" width="20" height="20" rx="5" fill="white" opacity="0.7"/>
  <text x="28" y="93" text-anchor="middle" font-family="sans-serif" font-weight="bold" font-size="12" fill="#7C5CE0">A</text>
  <rect x="42" y="78" width="20" height="20" rx="5" fill="white" opacity="0.3"/>
  <text x="52" y="93" text-anchor="middle" font-family="sans-serif" font-weight="bold" font-size="12" fill="rgba(255,255,255,0.5)">B</text>
  <rect x="66" y="78" width="20" height="20" rx="5" fill="white" opacity="0.3"/>
  <text x="76" y="93" text-anchor="middle" font-family="sans-serif" font-weight="bold" font-size="12" fill="rgba(255,255,255,0.5)">C</text>
  <rect x="90" y="78" width="20" height="20" rx="5" fill="white" opacity="0.3"/>
  <text x="100" y="93" text-anchor="middle" font-family="sans-serif" font-weight="bold" font-size="12" fill="rgba(255,255,255,0.5)">Ç</text>
  <!-- VS badge -->
  <circle cx="64" cy="112" r="12" fill="white" opacity="0.9"/>
  <text x="64" y="117" text-anchor="middle" font-family="sans-serif" font-weight="900" font-size="12" fill="#7C5CE0">VS</text>
</svg>
