<svg xmlns="http://www.w3.org/2000/svg" viewBox="0 0 128 128" xmlns:c2pa="http://c2pa.org/manifest"><defs><linearGradient id="hb" x1="0" y1="0" x2="0" y2="1"><stop offset="0%" stop-color="#8FD4F0"></stop><stop offset="100%" stop-color="#3F9FC9"></stop></linearGradient><linearGradient id="tl" x1="0" y1="0" x2="0" y2="1"><stop offset="0%" stop-color="#FFFFFF"></stop><stop offset="100%" stop-color="#E7F1F7"></stop></linearGradient><clipPath id="c"><rect width="128" height="128" rx="28"></rect></clipPath></defs><g clip-path="url(#c)"><rect width="128" height="128" fill="url(#hb)"></rect>
  <ellipse cx="64" cy="112" rx="46" ry="8" fill="#2A7EA6" opacity=".3"></ellipse>
  <g transform="translate(64 34)"><path d="M0 -3c-8.25 -7.5 -16.5 1.5 -16.5 8.25 0 9 6.75 16.5 16.5 16.5s16.5 -7.5 16.5 -16.5c0 -6.75 -8.25 -15.75 -16.5 -8.25z" fill="#E8453C" stroke="#B02D26" stroke-width="2"></path><rect x="-1.3499999999999999" y="-14.25" width="2.6999999999999997" height="6" rx="1.3499999999999999" fill="#7A4A12"></rect><path d="M1.2 -11.700000000000001q7.5 -4.5 9 1.5-6.75 3 -9 -1.5z" fill="#5FBE4E"></path></g>
  <g>
    <rect x="12" y="62" width="48" height="38" rx="9" fill="url(#tl)" stroke="#9FBFD0" stroke-width="2.5" transform="rotate(-4 36 81)"></rect>
    <text x="36" y="89" text-anchor="middle" font-family="Fredoka, Verdana, sans-serif" font-weight="700" font-size="22" fill="#1F5C7A" transform="rotate(-4 36 81)">el</text>
    <rect x="68" y="62" width="48" height="38" rx="9" fill="url(#tl)" stroke="#9FBFD0" stroke-width="2.5" transform="rotate(4 92 81)"></rect>
    <text x="92" y="89" text-anchor="middle" font-family="Fredoka, Verdana, sans-serif" font-weight="700" font-size="22" fill="#1F5C7A" transform="rotate(4 92 81)">ma</text>
  </g>
  <path d="M60 81h8" stroke="#fff" stroke-width="5" stroke-linecap="round"></path></g></svg>