<svg xmlns="http://www.w3.org/2000/svg" viewBox="0 0 128 128">
  <defs>
    <linearGradient id="bg" x1="0" y1="0" x2="1" y2="1">
      <stop offset="0%" stop-color="#5B9DFF"/>
      <stop offset="100%" stop-color="#3A86FF"/>
    </linearGradient>
    <radialGradient id="glow" cx="0.5" cy="0.5" r="0.5">
      <stop offset="0%" stop-color="#FFD166" stop-opacity="0.9"/>
      <stop offset="100%" stop-color="#FFD166" stop-opacity="0"/>
    </radialGradient>
  </defs>
  <rect width="128" height="128" rx="28" fill="url(#bg)"/>
  <!-- Klavye gövdesi -->
  <rect x="14" y="44" width="100" height="62" rx="12" fill="#FFFFFF" opacity="0.18"/>
  <!-- Yanan tuşun ışığı -->
  <circle cx="64" cy="62" r="30" fill="url(#glow)"/>
  <!-- 1. sıra -->
  <g fill="#FFFFFF" opacity="0.95">
    <rect x="22" y="52" width="14" height="14" rx="4"/>
    <rect x="40" y="52" width="14" height="14" rx="4"/>
    <rect x="76" y="52" width="14" height="14" rx="4"/>
    <rect x="94" y="52" width="14" height="14" rx="4"/>
    <!-- 2. sıra (¼ kayma) -->
    <rect x="27" y="70" width="14" height="14" rx="4"/>
    <rect x="45" y="70" width="14" height="14" rx="4"/>
    <rect x="63" y="70" width="14" height="14" rx="4"/>
    <rect x="81" y="70" width="14" height="14" rx="4"/>
    <rect x="99" y="70" width="10" height="14" rx="4"/>
    <!-- Boşluk -->
    <rect x="38" y="88" width="52" height="12" rx="5"/>
  </g>
  <!-- Yanan tuş: A -->
  <rect x="57" y="51" width="16" height="16" rx="4.5" fill="#FFD166" stroke="#E0A800" stroke-width="1.5"/>
  <text x="65" y="63.6" text-anchor="middle" font-family="sans-serif" font-weight="900" font-size="12" fill="#2D3436">A</text>
  <!-- Büyük harf: ekrandaki hedef -->
  <text x="64" y="38" text-anchor="middle" font-family="sans-serif" font-weight="900" font-size="30" fill="#FFFFFF">A</text>
  <!-- Kıvılcımlar -->
  <g fill="#FFD166">
    <path d="M96 22l2.2 5.3 5.3 2.2-5.3 2.2L96 37l-2.2-5.3-5.3-2.2 5.3-2.2z"/>
    <path d="M30 26l1.5 3.6 3.6 1.5-3.6 1.5L30 36.2l-1.5-3.6-3.6-1.5 3.6-1.5z" opacity="0.85"/>
  </g>
</svg>
