<svg xmlns="http://www.w3.org/2000/svg" viewBox="0 0 96 96"><rect x="16" y="24" width="32" height="28" rx="6" fill="#00BCD4"/><rect x="22" y="12" width="20" height="16" rx="8" fill="#00BCD4"/><circle cx="28" cy="20" r="4" fill="white"/><circle cx="28" cy="20" r="2" fill="#333"/><circle cx="36" cy="20" r="4" fill="white"/><circle cx="36" cy="20" r="2" fill="#333"/><rect x="28" y="32" width="8" height="4" rx="2" fill="white"/><rect x="10" y="32" width="8" height="4" rx="2" fill="#00ACC1"/><rect x="46" y="32" width="8" height="4" rx="2" fill="#00ACC1"/><rect x="20" y="52" width="8" height="8" rx="3" fill="#00ACC1"/><rect x="36" y="52" width="8" height="8" rx="3" fill="#00ACC1"/><line x1="32" y1="6" x2="32" y2="12" stroke="#00BCD4" stroke-width="3" stroke-linecap="round"/><circle cx="32" cy="5" r="3" fill="#FFD700"/><rect x="58" y="20" width="28" height="10" rx="4" fill="#4ECDC4"/><rect x="58" y="34" width="28" height="10" rx="4" fill="#FF6B6B"/><rect x="58" y="48" width="28" height="10" rx="4" fill="#45B7D1"/><path d="M66 25l4-3v6z" fill="white"/><path d="M68 37l-3 4h6z" fill="white"/><path d="M70 51l3 4h-6z" fill="white"/></svg>
