<svg xmlns="http://www.w3.org/2000/svg" viewBox="0 0 96 96">
  <rect width="96" height="96" rx="20" fill="#FF5722"/>
  <!-- Zemin -->
  <rect x="8" y="58" width="80" height="30" rx="6" fill="#4CAF50"/>
  <!-- Bina -->
  <rect x="14" y="34" width="22" height="24" rx="3" fill="#E74C3C"/>
  <rect x="18" y="38" width="6" height="6" rx="1" fill="#87CEEB"/>
  <rect x="26" y="38" width="6" height="6" rx="1" fill="#87CEEB"/>
  <rect x="22" y="48" width="6" height="10" rx="1" fill="#5D4037"/>
  <polygon points="13,34 36,34 25,22" fill="#8B4513"/>
  <!-- Ağaç -->
  <rect x="60" y="44" width="4" height="14" rx="1" fill="#8D6E63"/>
  <polygon points="52,44 70,44 62,28" fill="#27AE60"/>
  <!-- LEGO adam -->
  <circle cx="48" cy="50" r="5" fill="#FFD600"/>
  <rect x="44" y="48" width="8" height="3" rx="1" fill="#E74C3C"/>
  <rect x="44" y="55" width="8" height="8" rx="2" fill="#E74C3C"/>
  <rect x="44" y="63" width="4" height="5" rx="1" fill="#2980B9"/>
  <rect x="48" y="63" width="4" height="5" rx="1" fill="#2980B9"/>
  <!-- 3D text -->
  <text x="48" y="84" text-anchor="middle" font-size="11" font-weight="bold" fill="white" font-family="sans-serif">3D WORLD</text>
  <!-- Parça -->
  <rect x="72" y="50" width="10" height="6" rx="2" fill="#3498DB"/>
  <circle cx="75" cy="50" r="2.5" fill="#3498DB" stroke="rgba(255,255,255,0.3)" stroke-width="0.5"/>
  <circle cx="80" cy="50" r="2.5" fill="#3498DB" stroke="rgba(255,255,255,0.3)" stroke-width="0.5"/>
</svg>
