<svg xmlns="http://www.w3.org/2000/svg" viewBox="0 0 256 256">
  <rect width="256" height="256" rx="48" fill="#FF9800"/>
  <rect x="20" y="180" width="216" height="20" rx="6" fill="#8B4513"/>
  <rect x="20" y="180" width="216" height="5" rx="2" fill="#2ECC71"/>
  <rect x="100" y="130" width="80" height="14" rx="4" fill="#8B4513"/>
  <rect x="100" y="130" width="80" height="4" rx="2" fill="#2ECC71"/>
  <!-- Karakter -->
  <circle cx="128" cy="96" r="16" fill="#FECA57"/>
  <rect x="120" y="108" width="16" height="20" rx="3" fill="#3498DB"/>
  <rect x="114" y="88" width="28" height="8" rx="2" fill="#E74C3C"/>
  <rect x="118" y="82" width="20" height="8" rx="2" fill="#E74C3C"/>
  <circle cx="134" cy="94" r="3" fill="#333"/>
  <rect x="120" y="128" width="7" height="8" rx="2" fill="#2C3E50"/>
  <rect x="130" y="128" width="7" height="8" rx="2" fill="#2C3E50"/>
  <!-- Paralar -->
  <circle cx="60" cy="155" r="12" fill="#FFD700" stroke="#DAA520" stroke-width="2"/>
  <circle cx="196" cy="110" r="12" fill="#FFD700" stroke="#DAA520" stroke-width="2"/>
  <circle cx="160" cy="155" r="10" fill="#FFD700" stroke="#DAA520" stroke-width="2"/>
</svg>
